<svg width="800" height="600" xmlns="http://www.w3.org/2000/svg">
 <g>
  <title>Layer 1</title>

  <path fill="#053570" id="svg_43" d="m458.22857,301.43744c-17.555,-11.145 -38.02,-14.102 -56.863,-9.8906c-18.855,4.2109 -36.102,15.598 -47.246,33.156c-22.281,35.125 -11.848,81.82 23.27,104.11c35.117,22.281 81.828,11.844 104.11,-23.27c10.797,-17.012 14.324,-37.211 9.9297,-56.875c-4.3984,-19.652 -16.188,-36.438 -33.199,-47.234l-0.0017,0.0036z"/>
  <path fill="#053570" id="svg_44" d="m417.29857,69.17544c-52.121,0 -94.516,42.402 -94.516,94.516l0,32.535l-75.492,0.00391c-4.3398,0 -7.9844,3.2656 -8.457,7.5781l-31.691,287.13c-0.26172,2.4023 0.50391,4.8086 2.1172,6.6094c1.6133,1.8047 3.9219,2.832 6.3398,2.832l403.39,0c0.73828,0 1.457,-0.125 2.1562,-0.3125l-26.273,-16.703l-104.94,-66.734c-13.551,17.566 -32.48,29.109 -52.977,33.691c-23.105,5.1641 -48.172,1.5352 -69.699,-12.125c-43.035,-27.316 -55.832,-84.559 -28.516,-127.6c27.324,-43.031 84.559,-55.832 127.6,-28.516c20.848,13.234 35.297,33.797 40.684,57.898c4.7617,21.312 1.9023,43.121 -7.9648,62.301l127.55,81.105l-30.855,-279.57c-0.47656,-4.3164 -4.1211,-7.5781 -8.4609,-7.5781l-75.477,0l0,-32.535c0,-52.117 -42.406,-94.523 -94.52,-94.523l0.0015,-0.00281zm77.5,127.05l-155,0l0,-32.535c0,-42.734 34.766,-77.5 77.5,-77.5c42.734,0 77.5,34.766 77.5,77.5l0,32.535z"/>
 </g>
</svg>